<svg xmlns="http://www.w3.org/2000/svg" xmlns:xlink="http://www.w3.org/1999/xlink" version="1.1"
    width="30" height="30" viewBox="0 0 300 300" xml:space="preserve">

                    <style>
                        svg:hover #poly__link {
                            fill: hsl(223, 87%, 63%);
                        }

                        svg:hover #link {
                            fill: hsl(0, 0%, 100%);
                        }
                    </style>

                    <g transform="matrix(2.9 0 0 2.9 150.25 144.75)">
                        <polygon id="poly__link" fill="rgb(255,255,255)" vector-effect="non-scaling-stroke"
                            points="-50,-50 -50,50 50,50 50,-50 " />
                    </g>

                    <g transform="matrix(0.67 0 0 0.67 150 150)">
                        <path id="link" fill="hsl(223, 87%, 63%)" transform=" translate(-224, -256)"
                            d="M 416 32 H 31.9 C 14.3 32 0 46.5 0 64.3 v 383.4 C 0 465.5 14.3 480 31.9 480 H 416 c 17.6 0 32 -14.5 32 -32.3 V 64.3 c 0 -17.8 -14.4 -32.3 -32 -32.3 z M 135.4 416 H 69 V 202.2 h 66.5 V 416 z m -33.2 -243 c -21.3 0 -38.5 -17.3 -38.5 -38.5 S 80.9 96 102.2 96 c 21.2 0 38.5 17.3 38.5 38.5 c 0 21.3 -17.2 38.5 -38.5 38.5 z m 282.1 243 h -66.4 V 312 c 0 -24.8 -0.5 -56.7 -34.5 -56.7 c -34.6 0 -39.9 27 -39.9 54.9 V 416 h -66.4 V 202.2 h 63.7 v 29.2 h 0.9 c 8.9 -16.8 30.6 -34.5 62.9 -34.5 c 67.2 0 79.7 44.3 79.7 101.9 V 416 z"
                            stroke-linecap="round" />
                    </g>
                </svg>